<?xml version="1.0" standalone="no"?>
<!DOCTYPE svg PUBLIC "-//W3C//DTD SVG 1.1//EN" "http://www.w3.org/Graphics/SVG/1.1/DTD/svg11.dtd" >
<svg xmlns="http://www.w3.org/2000/svg">
<metadata>Generated by IcoMoon</metadata>
<defs>
<font id="ui-green" horiz-adv-x="1024">
<font-face units-per-em="1024" ascent="960" descent="-64" />
<missing-glyph horiz-adv-x="1024" />
<glyph unicode="&#x20;" horiz-adv-x="512" d="" />
<glyph unicode="&#xe036;" glyph-name="search" d="M426.667 896q78 0 149.167-30.5t122.5-81.833 81.833-122.5 30.5-149.167q0-67-21.833-128.333t-62.167-111.333l242.333-242q12.333-12.333 12.333-30.333 0-18.333-12.167-30.5t-30.5-12.167q-18 0-30.333 12.333l-242 242.333q-50-40.333-111.333-62.167t-128.333-21.833q-78 0-149.167 30.5t-122.5 81.833-81.833 122.5-30.5 149.167 30.5 149.167 81.833 122.5 122.5 81.833 149.167 30.5zM426.667 810.667q-60.667 0-116-23.667t-95.333-63.667-63.667-95.333-23.667-116 23.667-116 63.667-95.333 95.333-63.667 116-23.667 116 23.667 95.333 63.667 63.667 95.333 23.667 116-23.667 116-63.667 95.333-95.333 63.667-116 23.667z" />
<glyph unicode="&#xe037;" glyph-name="zoom-in" d="M426.667 896q78 0 149.167-30.5t122.5-81.833 81.833-122.5 30.5-149.167q0-67-21.833-128.333t-62.167-111.333l242.333-242q12.333-12.333 12.333-30.333 0-18.333-12.167-30.5t-30.5-12.167q-18 0-30.333 12.333l-242 242.333q-50-40.333-111.333-62.167t-128.333-21.833q-78 0-149.167 30.5t-122.5 81.833-81.833 122.5-30.5 149.167 30.5 149.167 81.833 122.5 122.5 81.833 149.167 30.5zM426.667 810.667q-60.667 0-116-23.667t-95.333-63.667-63.667-95.333-23.667-116 23.667-116 63.667-95.333 95.333-63.667 116-23.667 116 23.667 95.333 63.667 63.667 95.333 23.667 116-23.667 116-63.667 95.333-95.333 63.667-116 23.667zM426.667 682.667q17.667 0 30.167-12.5t12.5-30.167v-85.333h85.333q17.667 0 30.167-12.5t12.5-30.167-12.5-30.167-30.167-12.5h-85.333v-85.333q0-17.667-12.5-30.167t-30.167-12.5-30.167 12.5-12.5 30.167v85.333h-85.333q-17.667 0-30.167 12.5t-12.5 30.167 12.5 30.167 30.167 12.5h85.333v85.333q0 17.667 12.5 30.167t30.167 12.5z" />
<glyph unicode="&#xe038;" glyph-name="zoom-out" d="M426.667 896q78 0 149.167-30.5t122.5-81.833 81.833-122.5 30.5-149.167q0-67-21.833-128.333t-62.167-111.333l242.333-242q12.333-12.333 12.333-30.333 0-18.333-12.167-30.5t-30.5-12.167q-18 0-30.333 12.333l-242 242.333q-50-40.333-111.333-62.167t-128.333-21.833q-78 0-149.167 30.5t-122.5 81.833-81.833 122.5-30.5 149.167 30.5 149.167 81.833 122.5 122.5 81.833 149.167 30.5zM426.667 810.667q-60.667 0-116-23.667t-95.333-63.667-63.667-95.333-23.667-116 23.667-116 63.667-95.333 95.333-63.667 116-23.667 116 23.667 95.333 63.667 63.667 95.333 23.667 116-23.667 116-63.667 95.333-95.333 63.667-116 23.667zM298.667 554.667h256q17.667 0 30.167-12.5t12.5-30.167-12.5-30.167-30.167-12.5h-256q-17.667 0-30.167 12.5t-12.5 30.167 12.5 30.167 30.167 12.5z" />
<glyph unicode="&#xe058;" glyph-name="repeat" d="M42.667 384h256q17.667 0 30.167-12.5t12.5-30.167-12.5-30.167-30.167-12.5h-144l116-113.333q49.333-49.667 113-75 61-25 128.333-25t128.333 25q33.333 13.667 62.5 33.5t49.667 40.667 37.333 44.667 27 43.833 17.167 40q6 16.667 22 24.167t32.333 1.833q16.667-6 24.167-21.833t1.833-32.167q-14-42.667-40.667-84.667t-60-75.333q-61.333-61.333-141-93.667-77.333-31.333-160.667-31.333-83 0-160.667 31.333-79.667 32.333-141 93.667l-125 122.333v-162q0-17.667-12.5-30.167t-30.167-12.5-30.167 12.5-12.5 30.167v256q0 17.667 12.5 30.167t30.167 12.5zM512 853.334q83 0 160.667-31.333 79.667-32.333 141-93.667l0.667-0.667 124.333-121.667v162q0 17.667 12.5 30.167t30.167 12.5 30.167-12.5 12.5-30.167v-256q0-17.667-12.5-30.167t-30.167-12.5h-256q-17.667 0-30.167 12.5t-12.5 30.167 12.5 30.167 30.167 12.5h144l-116 113.333q-48.667 48.667-110.833 74.333t-130.5 25.667q-67.333 0-128.333-25-63.667-25.333-113-75-20-17.667-43.833-53.833t-36.833-73.833q-6-16.667-22-24.167t-32.333-1.833q-16.667 6-24.167 21.833t-1.833 32.167q14 42.667 40.667 84.667t60 75.333q61.333 61.333 141 93.667 77.667 31.333 160.667 31.333z" />
<glyph unicode="&#xe080;" glyph-name="reload" d="M469.333 853.334q83 0 160.667-31.333 79.667-32.333 141-93.667 0.333-0.333 125-122.333v162q0 17.667 12.5 30.167t30.167 12.5 30.167-12.5 12.5-30.167v-256q0-17.667-12.5-30.167t-30.167-12.5h-256q-17.667 0-30.167 12.5t-12.5 30.167 12.5 30.167 30.167 12.5h144q-92.667 90-116 113.333-49.667 49.667-113 75-61 25-128.333 25t-128.333-25q-63.667-25.333-113-75-49.333-49.333-75-113-25-61-25-128.333t25-128.333q25.667-63.667 75-113 49.333-49.667 113-75 61-25 128.333-25t128.333 25q63.333 25.333 113 75 55.333 55.333 80.667 127.667 5.667 16.667 21.667 24.167t32.667 1.833q16.667-6 24.333-22t1.667-32.667q-15.333-43.667-41.5-85.333t-59.167-74q-61.333-61.333-141-93.667-77.667-31.333-160.667-31.333t-160.667 31.333q-79.667 32.333-141 93.667t-93.667 141q-31.333 77.667-31.333 160.667t31.333 160.667q32.333 79.667 93.667 141t141 93.667q77.667 31.333 160.667 31.333z" />
<glyph unicode="&#xe081;" glyph-name="share" d="M768 853.334q70.667 0 120.667-50t50-120.667-50-120.667-120.667-50q-37.667 0-71.167 15.5t-57.5 43.167l-216.333-108.333q3.667-17.667 3.667-35.667t-3.667-35.667l216.333-108.333q24 27.667 57.5 43.167t71.167 15.5q70.667 0 120.667-50t50-120.667-50-120.667-120.667-50-120.667 50-50 120.667q0 18 3.667 35.667l-216.333 108.333q-24-27.667-57.5-43.167t-71.167-15.5q-70.667 0-120.667 50t-50 120.667 50 120.667 120.667 50q37.667 0 71.167-15.5t57.5-43.167l216.333 108.333q-3.667 17.667-3.667 35.667 0 70.667 50 120.667t120.667 50zM256 512q-35.333 0-60.333-25t-25-60.333 25-60.333 60.333-25 60.333 25 25 60.333-25 60.333-60.333 25zM768 256q-35.333 0-60.333-25t-25-60.333 25-60.333 60.333-25 60.333 25 25 60.333-25 60.333-60.333 25zM768 768q-35.333 0-60.333-25t-25-60.333 25-60.333 60.333-25 60.333 25 25 60.333-25 60.333-60.333 25z" />
<glyph unicode="&#xe094;" glyph-name="arrow-left" d="M426.667 768q17.667 0 30.167-12.5t12.5-30.167q0-18-12.667-30.333l-225.667-225.667h665q17.667 0 30.167-12.5t12.5-30.167-12.5-30.167-30.167-12.5h-665l225.667-225.667q12.667-12.333 12.667-30.333 0-17.667-12.5-30.167t-30.167-12.5q-18 0-30.333 12.333l-298.667 298.667q-12.333 13-12.333 30.333t12.333 30.333l298.667 298.667q12.667 12.333 30.333 12.333z" />
<glyph unicode="&#xe095;" glyph-name="arrow-right" d="M597.333 768q18 0 30.333-12.333l298.667-298.667q12.333-12.333 12.333-30.333t-12.333-30.333l-298.667-298.667q-12.333-12.333-30.333-12.333-18.333 0-30.5 12.167t-12.167 30.5q0 18 12.333 30.333l226 225.667h-665q-17.667 0-30.167 12.5t-12.5 30.167 12.5 30.167 30.167 12.5h665l-226 225.667q-12.333 12.333-12.333 30.333 0 18.333 12.167 30.5t30.5 12.167z" />
<glyph unicode="&#xe096;" glyph-name="arrow-up" d="M512 853.334q18 0 30.333-12.333l298.667-298.667q12.333-12.333 12.333-30.333 0-18.333-12.167-30.5t-30.5-12.167q-18 0-30.333 12.333l-225.667 226v-665q0-17.667-12.5-30.167t-30.167-12.5-30.167 12.5-12.5 30.167v665l-225.667-226q-12.333-12.333-30.333-12.333-18.333 0-30.5 12.167t-12.167 30.5q0 18 12.333 30.333l298.667 298.667q12.333 12.333 30.333 12.333z" />
<glyph unicode="&#xe097;" glyph-name="arrow-down" d="M512 853.334q17.667 0 30.167-12.5t12.5-30.167v-665l225.667 226q12.333 12.333 30.333 12.333 18.333 0 30.5-12.167t12.167-30.5q0-18-12.333-30.333l-298.667-298.667q-12.333-12.333-30.333-12.333t-30.333 12.333l-298.667 298.667q-12.333 12.333-12.333 30.333 0 18.333 12.167 30.5t30.5 12.167q18 0 30.333-12.333l225.667-226v665q0 17.667 12.5 30.167t30.167 12.5z" />
<glyph unicode="&#xe114;" glyph-name="plus" d="M512 853.334q17.667 0 30.167-12.5t12.5-30.167v-341.333h341.333q17.667 0 30.167-12.5t12.5-30.167-12.5-30.167-30.167-12.5h-341.333v-341.333q0-17.667-12.5-30.167t-30.167-12.5-30.167 12.5-12.5 30.167v341.333h-341.333q-17.667 0-30.167 12.5t-12.5 30.167 12.5 30.167 30.167 12.5h341.333v341.333q0 17.667 12.5 30.167t30.167 12.5z" />
<glyph unicode="&#xe115;" glyph-name="minus" d="M128 469.334h768q17.667 0 30.167-12.5t12.5-30.167-12.5-30.167-30.167-12.5h-768q-17.667 0-30.167 12.5t-12.5 30.167 12.5 30.167 30.167 12.5z" />
<glyph unicode="&#xe116;" glyph-name="check" d="M896 725.334q18.333 0 30.5-12.167t12.167-30.5q0-18-12.333-30.333l-512-512q-12.333-12.333-30.333-12.333t-30.333 12.333l-256 256q-12.333 12.333-12.333 30.333 0 18.333 12.167 30.5t30.5 12.167q18 0 30.333-12.333l225.667-226 481.667 482q12.333 12.333 30.333 12.333z" />
<glyph unicode="&#xe117;" glyph-name="cross" d="M810.667 768q18.333 0 30.5-12.167t12.167-30.5q0-18-12.333-30.333l-268.667-268.333 268.667-268.333q12.333-12.333 12.333-30.333 0-18.333-12.167-30.5t-30.5-12.167q-18 0-30.333 12.333l-268.333 268.667-268.333-268.667q-12.333-12.333-30.333-12.333-18.333 0-30.5 12.167t-12.167 30.5q0 18 12.333 30.333l268.667 268.333-268.667 268.333q-12.333 12.333-12.333 30.333 0 18.333 12.167 30.5t30.5 12.167q18 0 30.333-12.333l268.333-268.667 268.333 268.667q12.333 12.333 30.333 12.333z" />
<glyph unicode="&#xe129;" glyph-name="ellipsis" d="M853.333 554.667q53 0 90.5-37.5t37.5-90.5-37.5-90.5-90.5-37.5-90.5 37.5-37.5 90.5 37.5 90.5 90.5 37.5zM170.667 554.667q53 0 90.5-37.5t37.5-90.5-37.5-90.5-90.5-37.5-90.5 37.5-37.5 90.5 37.5 90.5 90.5 37.5zM170.667 469.334q-17.667 0-30.167-12.5t-12.5-30.167 12.5-30.167 30.167-12.5 30.167 12.5 12.5 30.167-12.5 30.167-30.167 12.5zM512 554.667q53 0 90.5-37.5t37.5-90.5-37.5-90.5-90.5-37.5-90.5 37.5-37.5 90.5 37.5 90.5 90.5 37.5zM512 469.334q-17.667 0-30.167-12.5t-12.5-30.167 12.5-30.167 30.167-12.5 30.167 12.5 12.5 30.167-12.5 30.167-30.167 12.5zM853.333 469.334q-17.667 0-30.167-12.5t-12.5-30.167 12.5-30.167 30.167-12.5 30.167 12.5 12.5 30.167-12.5 30.167-30.167 12.5z" />
<glyph unicode="&#xe900;" glyph-name="bag-false" horiz-adv-x="1025" d="M0 609.096v-598.081c0-47.187 38.253-85.44 85.44-85.44h854.401c47.187 0 85.44 38.253 85.44 85.44v598.081zM982.562 11.016c0.056-0.793 0.088-1.718 0.088-2.651 0-22.178-17.979-40.157-40.157-40.157-0.933 0-1.858 0.032-2.775 0.094l-854.277-0.007c-0.793-0.056-1.718-0.088-2.651-0.088-22.178 0-40.157 17.979-40.157 40.157 0 0.933 0.032 1.858 0.094 2.775l-0.007 555.237h939.841zM303.312 651.817c-2.573 12.527-4.046 26.925-4.046 41.667 0 103.345 72.379 189.785 169.211 211.393 14.221 2.987 28.903 4.542 43.949 4.542 103.306 0 189.483-73.337 209.309-170.789 2.274-14.212 3.439-29.017 3.439-44.093s-1.166-29.881-3.412-44.328l42.926 1.608c2.949 14.431 4.636 31.018 4.636 47.998 0 125.508-92.204 229.481-212.57 247.876-14.645 2.629-29.892 4.032-45.466 4.032-126.276 0-231.009-92.236-250.503-213.011-2.232-14.934-3.397-30.487-3.397-46.312s1.164-31.377 3.412-46.577l42.511 1.721zM393.025 147.72c3.75-3.989 9.061-6.473 14.952-6.473s11.202 2.484 14.942 6.462l0.010 0.011 89.712 89.712 89.712-89.712c3.827-3.827 9.113-6.193 14.952-6.193 11.678 0 21.145 9.467 21.145 21.145 0 5.839-2.367 11.125-6.193 14.952l-89.712 89.712 89.712 89.712c3.827 3.827 6.193 9.113 6.193 14.952 0 11.678-9.467 21.145-21.145 21.145-5.839 0-11.125-2.367-14.952-6.193l-89.712-88.431-89.712 89.712c-3.827 3.827-9.113 6.193-14.952 6.193-11.678 0-21.145-9.467-21.145-21.145 0-5.839 2.367-11.125 6.193-14.952l89.712-90.994-89.712-89.712c-3.989-3.75-6.473-9.061-6.473-14.952s2.484-11.202 6.462-14.942z" />
<glyph unicode="&#xe901;" glyph-name="bag-is" horiz-adv-x="1020" d="M301.676 649.181c-2.409 12.092-3.788 25.994-3.788 40.219 0 102.702 71.87 188.619 168.060 210.199 14.221 3.005 28.908 4.57 43.96 4.57 102.309 0 187.727-72.319 207.923-168.626 2.272-14.153 3.431-28.877 3.431-43.873s-1.159-29.72-3.393-44.089l42.694 1.599c2.755 14.070 4.332 30.248 4.332 46.795 0 124.301-88.96 227.825-206.685 250.378-14.853 2.666-30.111 4.045-45.69 4.045-124.771 0-228.882-88.453-253.048-206.073-2.318-15.709-3.479-31.922-3.479-48.406s1.16-32.698 3.404-48.563zM0 606.691v-594.855c0-46.933 38.047-84.979 84.979-84.979h849.793c46.933 0 84.979 38.047 84.979 84.979v594.855zM977.261 11.836c0.055-0.789 0.087-1.709 0.087-2.636 0-22.058-17.882-39.94-39.94-39.94-0.928 0-1.848 0.032-2.76 0.094l-849.669-0.007c-0.789-0.055-1.709-0.087-2.636-0.087-22.058 0-39.94 17.882-39.94 39.94 0 0.928 0.032 1.848 0.094 2.76l-0.007 552.242h934.772zM552.365 126.558c0-23.466-19.023-42.49-42.49-42.49s-42.49 19.023-42.49 42.49c0 23.466 19.023 42.49 42.49 42.49s42.49-19.023 42.49-42.49zM433.394 402.741l12.747-33.992c15.937 9.055 34.703 15.13 54.696 16.956 30.283 0.040 43.030-8.458 51.528-29.703 21.245-46.739-72.232-63.734-72.232-123.22v-25.494h42.49v25.494c0 29.743 80.73 59.485 72.232 114.722-12.747 114.722-135.967 76.481-161.461 55.237z" />
<glyph unicode="&#xe902;" glyph-name="location-false" horiz-adv-x="853" d="M456.533 524.19l89.6 89.6c3.822 3.822 6.186 9.102 6.186 14.933 0 11.664-9.455 21.119-21.119 21.119-5.832 0-11.112-2.364-14.933-6.186v0l-89.6-89.6-89.6 89.6c-3.822 3.822-9.102 6.186-14.933 6.186-11.664 0-21.119-9.455-21.119-21.119 0-5.832 2.364-11.112 6.186-14.933v0l89.6-93.867-89.6-89.6c-3.822-3.822-6.186-9.102-6.186-14.933 0-11.664 9.455-21.119 21.119-21.119 5.832 0 11.112 2.364 14.933 6.186l89.6 89.6 89.6-89.6c3.822-3.822 9.102-6.186 14.933-6.186 11.664 0 21.119 9.455 21.119 21.119 0 5.832-2.364 11.112-6.186 14.933v0zM426.667 950.857c-235.641 0-426.667-191.025-426.667-426.667 0-234.667 422.4-597.333 426.667-597.333s426.667 362.667 426.667 597.333c0 235.641-191.025 426.667-426.667 426.667zM426.667-30.476c-4.267 0-384 337.067-384 554.667 0 212.077 171.923 384 384 384s384-171.923 384-384c0-217.6-379.733-554.667-384-554.667z" />
<glyph unicode="&#xe903;" glyph-name="location-is" horiz-adv-x="853" d="M426.667 950.857c-235.641 0-426.667-191.025-426.667-426.667 0-234.667 422.4-597.333 426.667-597.333s426.667 362.667 426.667 597.333c0 235.641-191.025 426.667-426.667 426.667zM426.667-30.476c-4.267 0-384 337.067-384 554.667 0 212.077 171.923 384 384 384s384-171.923 384-384c0-213.333-379.733-554.667-384-554.667zM426.667 396.19c-23.564 0-42.667-19.103-42.667-42.667s19.103-42.667 42.667-42.667c23.564 0 42.667 19.103 42.667 42.667s-19.103 42.667-42.667 42.667zM349.867 630.857l12.8-34.133c16.004 9.092 34.847 15.193 54.924 17.027 30.409 0.040 43.209-8.493 51.743-29.827 21.333-46.933-72.533-64-72.533-123.733v-25.6h42.667v25.6c0 29.867 81.067 59.733 72.533 115.2-12.8 115.2-132.267 76.8-162.133 55.467z" />
<glyph unicode="&#xe904;" glyph-name="purse-is" horiz-adv-x="1023" d="M937.885 12.972c0.056-0.791 0.087-1.715 0.087-2.645 0-22.132-17.941-40.073-40.073-40.073-0.931 0-1.854 0.032-2.769 0.094l-809.868-0.007c-0.791-0.056-1.715-0.087-2.645-0.087-22.132 0-40.073 17.941-40.073 40.073 0 0.931 0.032 1.854 0.094 2.769l-0.007 596.712c-0.056 0.791-0.087 1.715-0.087 2.645 0 22.132 17.941 40.073 40.073 40.073 0.931 0 1.854-0.032 2.769-0.094l809.868 0.007c0.791 0.056 1.715 0.087 2.645 0.087 22.132 0 40.073-17.941 40.073-40.073 0-0.931-0.032-1.854-0.094-2.769l0.007-127.77h42.631v127.893c0 47.089-38.173 85.262-85.262 85.262h-809.992c-47.089 0-85.262-38.173-85.262-85.262v-596.836c0-47.089 38.173-85.262 85.262-85.262h809.992c47.089 0 85.262 38.173 85.262 85.262v127.893h-42.631zM115.104 741.112l635.204 167.114c2.265 0.391 4.874 0.615 7.535 0.615 19.916 0 36.906-12.53 43.517-30.136l34.21-141.003h34.105l-51.157 182.461c-3.685 18.144-19.507 31.609-38.475 31.609-2.983 0-5.889-0.333-8.682-0.964l-698.888-184.117c-13.479-4.21-23.478-15.634-25.554-29.642l63.922-0.2c2.354 0 4.263 1.909 4.263 4.263zM852.623 354.021h-42.631v-85.262h42.631zM980.516 439.283h-213.156c-0.791 0.056-1.715 0.087-2.645 0.087-22.132 0-40.073-17.941-40.073-40.073 0-0.931 0.032-1.854 0.094-2.769l-0.007-170.401c-0.056-0.791-0.087-1.715-0.087-2.645 0-22.132 17.941-40.073 40.073-40.073 0.931 0 1.854 0.032 2.769 0.094l213.032-0.007c0.791-0.056 1.715-0.087 2.645-0.087 22.132 0 40.073 17.941 40.073 40.073 0 0.931-0.032 1.854-0.094 2.769l0.007 170.401c0.056 0.791 0.087 1.715 0.087 2.645 0 22.132-17.941 40.073-40.073 40.073-0.931 0-1.854-0.032-2.769-0.094zM980.516 226.128h-213.156v170.525h213.156zM413.522 174.118c0-23.545-19.087-42.631-42.631-42.631s-42.631 19.087-42.631 42.631c0 23.545 19.087 42.631 42.631 42.631s42.631-19.087 42.631-42.631zM294.155 451.22l12.789-34.105c15.12 12.378 34.189 20.462 55.066 22.145 30.196 0.023 42.985-8.503 51.512-29.819 21.316-46.894-72.473-63.947-72.473-123.63v-25.579h42.631v25.579c0 29.842 80.999 59.684 72.473 115.104-12.789 109.988-132.157 71.62-161.998 50.305z" />
<glyph unicode="&#xe905;" glyph-name="plus-round" d="M834.8 502.857h-258.8v258.8c0 33.8-28.6 61.2-64 61.2s-64-27.4-64-61.2v-258.8h-258.8c-33.8 0-61.2-28.6-61.2-64s27.4-64 61.2-64h258.8v-258.8c0-33.8 28.6-61.2 64-61.2s64 27.4 64 61.2v258.8h258.8c33.8 0 61.2 28.6 61.2 64s-27.4 64-61.2 64z" />
<glyph unicode="&#xe906;" glyph-name="close-empty" d="M680.4 630.857l-168.8-168.6-168 167.8-23.6-23.6 168-167.6-168-167.8 23.6-23.4 168 167.6 168.8-168.4 23.6 23.4-168.8 168.6 168.8 168.4z" />
<glyph unicode="&#xe907;" glyph-name="trash" d="M682 694.857v58c0 38.2-29 70-69 70h-202.2c-39.8 0-68.8-31.8-68.8-70v-58h-182v-64h18.4c0 0 10.8-1.2 16.4-6.8s7.8-18 7.8-18l38-483.4c3-58.8 3-67.8 72-67.8h398.8c69 0 69 8.8 72 67.6l38 483.2c0 0 2.2 12.6 7.8 18.2s16.4 6.8 16.4 6.8h18.4v64h-182v0.2zM384 752.857c0 19.2 15.6 30 35.4 30h183.4c19.8 0 37.2-11 37.2-30v-58h-256v58zM367 182.857l-20.6 384h40.6l21-384h-41zM534.2 182.857h-44v384h44v-384zM657.4 182.857h-40.8l21 384h40.6l-20.8-384z" />
<glyph unicode="&#xe908;" glyph-name="chevron-up" d="M512 523.457v0 0l348.4-334.4c8.6-8.4 22.8-8.2 31.6 0.4l61.2 59.8c8.8 8.6 9 22.6 0.4 31l-425.4 408.4c-4.4 4.4-10.4 6.4-16.2 6-6 0.2-11.8-1.8-16.2-6l-425.4-408.4c-8.6-8.4-8.4-22.4 0.4-31l61.2-59.8c8.8-8.6 23-8.8 31.6-0.4l348.4 334.4z" />
<glyph unicode="&#xe909;" glyph-name="chevron-down" d="M512 354.257v0 0l348.4 334.4c8.6 8.4 22.8 8.2 31.6-0.4l61.2-59.8c8.8-8.6 9-22.6 0.4-31l-425.4-408.4c-4.4-4.4-10.4-6.4-16.2-6-6-0.2-11.8 1.8-16.2 6l-425.4 408.4c-8.6 8.4-8.4 22.4 0.4 31l61.2 59.8c8.8 8.6 23 8.8 31.6 0.4l348.4-334.4z" />
<glyph unicode="&#xe90a;" glyph-name="arrow-forward" d="M320 694.057l64.6 64.8 319.4-320-319.4-320-64.6 64.8 254.6 255.2z" />
<glyph unicode="&#xe90b;" glyph-name="arrow-back" d="M704 694.057l-64.6 64.8-319.4-320 319.4-320 64.6 64.8-254.6 255.2z" />
<glyph unicode="&#xe90c;" glyph-name="edit" d="M326.001 71.711l-181.138 181.138 500.696 500.696 181.138-181.138-500.696-500.696zM943.446 774.071l-96.23 96.228c-23.446 23.448-63.116 21.792-88.608-3.7l-90.404-90.406 181.138-181.136 90.404 90.404c25.486 25.492 27.144 65.164 3.7 88.61zM128.042 224.353l-64.042-233.496 233.474 64.042z" />
<glyph unicode="&#xe90d;" glyph-name="alert" horiz-adv-x="228" d="M0-73.143h227.556v227.556h-227.556zM0 950.857v-682.667h227.556v682.667z" />
<glyph unicode="&#xe90e;" glyph-name="barcode2" horiz-adv-x="1365" d="M426.667 182.857h85.333v768h-85.333zM256 182.857h85.333v768h-85.333zM426.667-73.143h85.333v170.667h-85.333zM0-73.143h170.667v170.667h-170.667zM256-73.143h85.333v170.667h-85.333zM0 182.857h170.667v768h-170.667zM597.333 182.857h85.333v768h-85.333zM1194.667-73.143h170.667v170.667h-170.667zM1024-73.143h85.333v1024h-85.333zM1194.667 950.857v-768h170.667v768zM768 182.857h170.667v768h-170.667zM597.333-73.143h85.333v170.667h-85.333zM768-73.143h170.667v170.667h-170.667z" />
<glyph unicode="&#xe90f;" glyph-name="brash" horiz-adv-x="745" d="M83.782 19.948c18.618-102.4 74.473-93.091 158.255-93.091h251.345c83.782 0 139.636-9.309 158.255 93.091l65.164 558.545h-688.873zM456.145 345.766c-0.061 0.864-0.095 1.872-0.095 2.888 0 24.164 19.589 43.753 43.753 43.753 1.016 0 2.024-0.035 3.023-0.103 0.729 0.068 1.737 0.103 2.753 0.103 24.164 0 43.753-19.589 43.753-43.753 0-1.016-0.035-2.024-0.103-3.023l0.007-186.047c0.061-0.864 0.095-1.872 0.095-2.888 0-24.164-19.589-43.753-43.753-43.753-1.016 0-2.024 0.035-3.023 0.103-0.729-0.068-1.737-0.103-2.753-0.103-24.164 0-43.753 19.589-43.753 43.753 0 1.016 0.035 2.024 0.103 3.023zM176.873 345.766c-0.061 0.864-0.095 1.872-0.095 2.888 0 24.164 19.589 43.753 43.753 43.753 1.016 0 2.024-0.035 3.023-0.103 0.729 0.068 1.737 0.103 2.753 0.103 24.164 0 43.753-19.589 43.753-43.753 0-1.016-0.035-2.024-0.103-3.023l0.007-186.047c0.061-0.864 0.095-1.872 0.095-2.888 0-24.164-19.589-43.753-43.753-43.753-1.016 0-2.024 0.035-3.023 0.103-0.729-0.068-1.737-0.103-2.753-0.103-24.164 0-43.753 19.589-43.753 43.753 0 1.016 0.035 2.024 0.103 3.023zM642.327 857.766h-167.564v18.618c0.004 0.279 0.006 0.607 0.006 0.937 0 40.616-32.926 73.542-73.542 73.542-0.329 0-0.658-0.002-0.987-0.006l-65.114 0.001c-0.279 0.004-0.607 0.006-0.937 0.006-40.616 0-73.542-32.926-73.542-73.542 0-0.329 0.002-0.658 0.006-0.987l-0.001-18.568h-167.564c-1.728 0.122-3.744 0.191-5.776 0.191-48.328 0-87.505-39.178-87.505-87.505 0-2.032 0.069-4.049 0.206-6.046-0.015-92.821-0.015-92.821 93.076-92.821h558.545c93.091 0 93.091 0 93.091 93.091-8.009 51.031-50.224 90.057-102.104 93.077z" />
<glyph unicode="&#xe910;" glyph-name="human" horiz-adv-x="818" d="M218.038 679.607v0l27.255-5.191c2.596 0 5.191-1.298 7.787-1.298l36.34-6.489v-1.298c35.042-6.489 62.297-12.978 62.297-11.681 49.318 83.062 98.636 112.913 134.976 128.487 24.659-23.361 68.786-54.51 81.764-98.636l2.596 1.298 14.276-28.553 31.148 3.894c18.17 19.468 33.744 59.701 33.744 121.997 0 86.956-71.381 142.763-110.317 142.763-0.758 0.037-1.647 0.058-2.541 0.058-12.198 0-23.482-3.913-32.664-10.553-27.091 24.772-69.92 36.452-127.025 36.452-162.231 0-237.506-186.89-220.634-259.569 23.12-2.678 43.815-6.781 63.891-12.368zM377.673 926.198c1.2 0.030 2.612 0.048 4.029 0.048 51.129 0 96.99-22.552 128.18-58.251 6.66 32.246 23.532 27.055 30.021 27.055 28.553 0 84.36-42.829 84.36-111.615 0-102.53-25.957-96.041-25.957-90.849 0 18.17-53.212 75.275-77.871 90.849-2.596 1.298-2.596 11.681 0 12.978 12.978 5.191 7.787 12.978 1.298 20.766-31.148-6.489-116.806-20.766-182.996-137.572 0-1.298-155.741 38.935-155.741 38.935 10.383 80.466 63.594 207.655 194.677 207.655zM608.689 634.183l-12.978-1.298-12.978-6.489c1.298-15.574 2.596-31.148 2.596-48.020 0-180.401-77.871-327.057-175.209-327.057s-175.209 146.657-175.209 327.057c-0.028 1.801-0.045 3.927-0.045 6.056 0 23.066 1.904 45.688 5.564 67.716l-26.285 2.801c-3.044-21.217-4.922-45.948-5.189-71.065-0.003-197.589 89.549-357.224 201.163-357.224s201.166 159.635 201.166 356.907c0 18.17-1.298 35.042-2.596 50.616zM456.842 205.894l-14.276-20.766 49.318-37.638 7.787 10.383 10.383-6.489 62.297 112.913-22.063 11.681-54.51-101.232zM578.839 323.998c-4.864-9.12-9.597-16.758-14.753-24.075 134.155-27.839 227.6-91.433 227.6-165.411 0-99.934-171.316-181.698-382.864-181.698s-382.864 81.764-382.864 181.698c0 73.977 93.445 137.572 227.123 166.124-5.191 7.787-9.085 15.574-14.276 23.361-141.465-32.446-238.804-105.125-238.804-189.485 0-114.21 182.996-207.655 408.821-207.655s408.821 93.445 408.821 207.655c1.298 84.36-97.338 155.741-238.804 189.485zM268.654 277.275l-22.063-11.681 62.297-112.913 10.383 6.489 7.787-10.383 49.318 37.638-14.276 20.766-37.638-28.553z" />
<glyph unicode="&#xe911;" glyph-name="info" horiz-adv-x="461" d="M411.826 15.9c-11.13 0-33.391-11.13-44.522-11.13-3.736-0.592-8.043-0.931-12.43-0.931-15.974 0-30.9 4.487-43.586 12.268-13.484 11.896-22.183 29.592-22.183 49.32 0 2.157 0.104 4.289 0.307 6.392l-0.021 44.254c0 22.261 11.13 33.391 11.13 55.652l55.652 189.217c0 22.261 11.13 33.391 11.13 55.652v44.522c0.331 3.221 0.52 6.96 0.52 10.743 0 36.517-17.585 68.926-44.749 89.222-31.54 21.323-70.055 33.914-111.511 33.914-3.946 0-7.865-0.114-11.754-0.339-3.846 0.305-8.967 0.464-14.126 0.464-26.572 0-52.155-4.232-76.112-12.059l-98.442-32.902-11.13-55.652c11.13 0 22.261 11.13 33.391 11.13s33.391 11.13 44.522 11.13c33.391 0 44.522 0 55.652-11.13s11.13-22.261 11.13-55.652v-44.522c-4.179-15.030-8.069-33.868-10.826-53.071l-55.956-191.799c0-22.261-11.13-33.391-11.13-55.652v-44.522c-0.099-1.83-0.155-3.973-0.155-6.129 0-37.835 17.319-71.626 44.463-93.875 31.461-21.284 69.977-33.876 111.432-33.876 3.946 0 7.865 0.114 11.754 0.339 4.695-0.462 10.788-0.712 16.939-0.712 25.617 0 50.224 4.327 73.129 12.29 26.927 12.791 60.361 24.27 95.132 32.247l14.61 56.324c11.13 0 0 0-22.261-11.13zM422.957 917.466c-22.512 20.726-52.686 33.432-85.828 33.432-1.131 0-2.258-0.015-3.381-0.044-0.792 0.029-1.919 0.044-3.049 0.044-33.142 0-63.317-12.706-85.918-33.513-20.636-22.43-33.343-52.605-33.343-85.747 0-1.131 0.015-2.258 0.044-3.381 1.11-33.843 13.529-64.752 33.592-89.133 22.308-20.47 52.482-33.177 85.624-33.177 1.131 0 2.258 0.015 3.381 0.044 0.792-0.029 1.919-0.044 3.049-0.044 33.142 0 63.317 12.706 85.918 33.513 20.636 22.43 33.343 52.605 33.343 85.747 0 1.131-0.015 2.258-0.044 3.381 11.134 33.225 0.003 55.486-33.388 88.878z" />
<glyph unicode="&#xe912;" glyph-name="lines" horiz-adv-x="1365" d="M0 950.857v-170.667h1365.333v170.667zM0 353.524h1365.333v170.667h-1365.333zM0-73.143h853.333v170.667h-853.333z" />
<glyph unicode="&#xe913;" glyph-name="pencil" d="M153.6 213.577l143.36-143.36 512 512-143.36 143.36zM880.64 950.857l-143.36-143.36 143.36-143.36 143.36 143.36zM0-73.143l215.040 71.68-143.36 143.36z" />
<glyph unicode="&#xe914;" glyph-name="people" horiz-adv-x="1012" d="M320.568 679.607v0l27.255-5.191c2.596 0 5.191-1.298 7.787-1.298l36.34-6.489v-1.298c35.042-6.489 62.297-12.978 62.297-11.681 49.318 83.062 98.636 112.913 134.976 128.487 24.659-23.361 68.786-54.51 81.764-98.636l2.596 1.298 14.276-28.553 31.148 3.894c18.17 19.468 33.744 59.701 33.744 121.997 0 86.956-71.381 142.763-110.317 142.763-0.758 0.037-1.647 0.058-2.541 0.058-12.198 0-23.482-3.913-32.664-10.553-27.091 24.772-69.92 36.452-127.025 36.452-162.231 0-237.506-186.89-220.634-259.569 23.12-2.678 43.815-6.781 63.891-12.368zM480.203 926.198c1.2 0.030 2.612 0.048 4.029 0.048 51.129 0 96.99-22.552 128.18-58.251 6.66 32.246 23.532 27.055 30.021 27.055 28.553 0 84.36-42.829 84.36-111.615 0-102.53-25.957-96.041-25.957-90.849 0 18.17-53.212 75.275-77.871 90.849-2.596 1.298-2.596 11.681 0 12.978 12.978 5.191 7.787 12.978 1.298 20.766-31.148-6.489-116.806-20.766-182.996-137.572 0-1.298-155.741 38.935-155.741 38.935 10.383 80.466 64.892 207.655 194.677 207.655zM560.669 207.192l-35.042-46.722h-6.489l12.978-181.698 25.957 1.298-11.681 164.826 35.042 46.722zM713.815 582.269c0 18.17-1.298 36.34-2.596 51.914l-12.978-1.298-12.978-6.489c1.298-15.574 2.596-31.148 2.596-48.020 0-180.401-77.871-327.057-175.209-327.057s-175.209 146.657-175.209 327.057c-0.028 1.801-0.045 3.927-0.045 6.056 0 23.066 1.904 45.688 5.564 67.716l-26.285 2.801c-3.044-21.217-4.922-45.948-5.189-71.065-0.003-197.589 89.549-357.224 201.163-357.224s201.166 158.337 201.166 355.61zM809.856 331.785h-1.298c53.212 58.403 88.253 153.146 88.253 243.995 0 107.721-49.318 177.805-118.104 206.357-1.103-9.748-2.928-18.549-5.47-27.041 57.384-24.873 97.617-84.574 97.617-178.019 0-97.338-42.829-202.464-103.828-247.888v-2.596l20.766-10.383zM841.004 323.998l-24.659-19.468c99.934-23.361 170.018-73.977 170.018-134.976 0-29.85-15.574-44.127-41.531-51.914-1.797-10.105-4.047-18.833-6.878-27.296 47.111 11.722 74.365 32.487 74.365 77.912 0 67.488-70.084 125.891-171.316 155.741zM682.667 323.998c-4.864-9.12-9.597-16.758-14.753-24.075 134.155-27.839 227.6-91.433 227.6-165.411 0-99.934-171.316-181.698-382.864-181.698s-382.864 81.764-382.864 181.698c0 73.977 93.445 137.572 227.123 166.124-5.191 7.787-9.085 15.574-14.276 23.361-141.465-32.446-238.804-105.125-238.804-189.485 0-114.21 182.996-207.655 408.821-207.655s408.821 93.445 408.821 207.655c0 84.36-97.338 155.741-238.804 189.485zM25.957 168.256c0 59.701 70.084 111.615 170.018 134.976l-24.659 19.468c-101.232-28.553-171.316-88.253-171.316-157.039 0-46.722 33.744-68.786 88.253-77.871-2.596 7.787-5.191 15.574-7.787 24.659-33.744 7.787-54.51 23.361-54.51 55.807zM493.181-22.527l12.978 181.698h-6.489l-35.042 46.722-20.766-15.574 35.042-46.722-11.681-164.826zM203.762 331.785l22.063-18.17 20.766 10.383v3.894c-60.999 46.722-103.828 151.848-103.828 247.888 0 90.849 37.638 150.55 92.147 177.805 1.122 11.246 2.952 21.401 5.502 31.267-71.692-28.671-123.606-100.053-123.606-209.072 0-90.849 35.042-186.89 88.253-243.995zM674.88 95.577v-25.957h90.849v25.957z" />
<glyph unicode="&#xe915;" glyph-name="photo" horiz-adv-x="1260" d="M1102.769 872.088h-244.185c-16.582 45.935-59.59 78.273-110.217 78.769h-236.368c-1.19 0.046-2.587 0.072-3.99 0.072-49.844 0-92.020-32.835-106.077-78.054l-244.395-0.787c-87.006 0-157.538-70.532-157.538-157.538v-630.154c0-87.006 70.532-157.538 157.538-157.538h945.231c87.006 0 157.538 70.532 157.538 157.538v630.154c0 87.006-70.532 157.538-157.538 157.538zM630.154 84.395c-174.012 0-315.077 141.065-315.077 315.077s141.065 315.077 315.077 315.077c174.012 0 315.077-141.065 315.077-315.077s-141.065-315.077-315.077-315.077zM1102.769 635.78h-157.538v157.538h157.538zM630.154 557.011c-87.006 0-157.538-70.532-157.538-157.538s70.532-157.538 157.538-157.538c87.006 0 157.538 70.532 157.538 157.538s-70.532 157.538-157.538 157.538z" />
<glyph unicode="&#xe916;" glyph-name="mouse" d="M442 933.067c-59.6-16.8-106.8-44-147.6-84.8-28.4-28.4-58.8-73.6-70.4-104.8-22.4-60-22-51.6-22-312.8 0-213.6 0.8-244.8 6.8-266 23.6-85.6 68.8-148.8 138-194 54.4-35.6 103.6-50 173.2-50s118.8 14.4 173.2 50c68.4 44.4 112.4 105.2 138 192 5.6 18.8 6.8 53.2 8 250 0.8 162.4 0 236.8-3.2 258-18.8 117.2-97.2 212-209.2 253.2-30.8 11.6-37.2 12.4-98.8 13.6-47.6 0.8-71.6-0.4-86-4.4zM574 872.667c72.4-15.2 139.6-67.2 173.2-134 28-56.4 28.8-61.6 28.8-308 0-246-0.8-251.2-28.4-308-41.6-83.6-132.8-140-227.6-140s-186 56.4-227.6 140c-27.6 56.8-28.4 62-28.4 308 0 246.4 0.8 251.6 28.8 308 51.2 102.4 167.2 158 281.2 134zM506 720.667l-10-9.6v-184.8l10-9.6c6-6.4 14.4-10 22-10s16 3.6 22 10l10 9.6v184.8l-10 9.6c-6 6.4-14.4 10-22 10s-16-3.6-22-10z" />
<glyph unicode="&#xe917;" glyph-name="mail-ru" d="M896.202 748.261c-167.488 174.914-445.238 209.606-655.904 84.23-275.394-163.866-280.912-480.128-177.090-659.894 153.69-266.204 482.676-271.276 600.876-220.942 78.224 33.26 43.438 135.076-31.888 104.694-148.734-60.078-399.018 0.126-486.464 201.986-80.252 185.072 2.356 382.124 131.424 471.142 121.428 83.7 349.744 108.236 519.904-40.688 182.566-159.74 105.064-435.442 40.276-502.024-16.61-16.95-46.536-3.31-43.862 23.114l-0.192 403.488c0 11.366-7.79 47.236-45.698 47.236l-6.134-0.032c-24.26 0-41.716-19.57-41.716-45.516v0.202c-53.9 54.060-127.35 88.584-205.458 88.584-154.326 0-290.114-137.368-290.114-293.224 0-154.326 135.788-290.080 290.114-290.080 78.108 0 149.794 31.19 203.664 84.644l0.806-28.812c-0.732-88.136 114.168-146.982 191.534-86.502 170.774 133.098 180.984 475.52 5.922 658.394zM493.246 215.621c-102.836 0-181.262 73.864-181.262 190.758 0 104.428 64.82 196.354 181.708 196.354h3.842c101.276 0 185.156-67.952 190.96-180.944l0.254-22.828c-5.456-99.354-80.846-183.34-195.502-183.34z" />
<glyph unicode="&#xe918;" glyph-name="facebook-official" d="M554 849.457c-75.4-6-124.6-42-144.4-105.6-4-13.2-4.4-18.8-5.2-90.4l-0.6-76.6h-83.8l0.4-69.4 0.6-69.6 41.6-0.6 41.4-0.4v-412h169.4l1.4 18.4c0.6 10 1.2 102.6 1.2 206v187.6h55.8c32.4 0 56.4 0.8 57.2 1.8 1.6 2.8 8.2 51.8 11.8 89.2 1.8 17.6 3.6 35.8 4.2 40.6l1 8.4h-57.6c-31.6 0-60.8 0.6-64.8 1.2l-7.6 1.4v48.8c0 52.8 0.4 54.6 11.4 64.8 12.2 11.4 14.2 11.8 68.6 11.8h50l-0.4 72.6-0.6 72.4-71 0.2c-39 0-75-0.2-80-0.6z" />
<glyph unicode="&#xe919;" glyph-name="logo" horiz-adv-x="3743" d="M112.993 931.613l-112.993-985.476h134.179l7.062 245.548h141.241l16.278-245.548 124.963-1.624-105.931 988.69zM176.552 332.926l35.31 459.034 35.31-459.034h-70.621zM706.207-55.488h141.241v847.448h211.862v141.241h-353.103v-988.69zM1456.163 931.613h-154.977v-985.476h147.986v377.821c157.767 0.035 245.725 24.964 245.725 185.521v247.172c0 132.873-75.388 174.963-238.733 174.963zM1553.655 474.167c0-38.841-62.641-35.31-105.931-35.31v388.414c60.028 0 105.931-14.583 105.931-105.931v-247.172zM2168.655 950.857c-90.748 0-191.276-18.255-191.276-194.207v-635.586c0-176.834 100.529-194.207 191.276-194.207 92.125 0 197.138 16.772 197.138 194.207v635.586c0 174.398-105.013 194.207-197.138 194.207zM2224.552 121.064c0-89.123-105.931-89.123-105.931 0v635.586c0 89.194 105.931 89.194 105.931 0v-635.586zM2865.788 942.7c-149.398 0-215.005-56.744-215.005-209.002l-2.507-153.6h141.241v176.552c-0.492 2.86-0.774 6.155-0.774 9.515 0 32.528 26.369 58.898 58.898 58.898 0.483 0 0.965-0.006 1.445-0.017 29.236 0.001 46.362-15.782 46.362-68.395v-105.931c0-170.231-244.665-354.41-244.665-642.295v-62.287l385.907-1.624v141.241h-211.862c0 207.625 212.674 355.928 212.674 629.972 0 116.242-29.308 226.975-171.714 226.975zM3672.276 332.926v600.276l-197.314-1.589-191.1-598.687v-141.241h247.172v-247.172h141.241v247.172h70.621v141.241h-70.621zM3531.034 332.926h-105.931c39.698 125.055 76.533 279.781 103.023 438.013l2.908 21.022v-459.034z" />
<glyph unicode="&#xe926;" glyph-name="file-text" d="M917.806 730.924c-22.212 30.292-53.174 65.7-87.178 99.704s-69.412 64.964-99.704 87.178c-51.574 37.82-76.592 42.194-90.924 42.194h-496c-44.112 0-80-35.888-80-80v-864c0-44.112 35.888-80 80-80h736c44.112 0 80 35.888 80 80v624c0 14.332-4.372 39.35-42.194 90.924zM785.374 785.374c30.7-30.7 54.8-58.398 72.58-81.374h-153.954v153.946c22.984-17.78 50.678-41.878 81.374-72.572zM896 16c0-8.672-7.328-16-16-16h-736c-8.672 0-16 7.328-16 16v864c0 8.672 7.328 16 16 16 0 0 495.956 0.002 496 0v-224c0-17.672 14.326-32 32-32h224v-624zM736 128h-448c-17.672 0-32 14.326-32 32s14.328 32 32 32h448c17.674 0 32-14.326 32-32s-14.326-32-32-32zM736 256h-448c-17.672 0-32 14.326-32 32s14.328 32 32 32h448c17.674 0 32-14.326 32-32s-14.326-32-32-32zM736 384h-448c-17.672 0-32 14.326-32 32s14.328 32 32 32h448c17.674 0 32-14.326 32-32s-14.326-32-32-32z" />
<glyph unicode="&#xf02a;" glyph-name="barcode" d="M36 73.143h-36v804.571h36v-804.571zM72 73.714h-18.286v804h18.286v-804zM125.714 73.714h-17.714v804h17.714v-804zM215.429 73.714h-17.714v804h17.714v-804zM305.143 73.714h-35.429v804h35.429v-804zM377.143 73.714h-17.714v804h17.714v-804zM413.143 73.714h-17.714v804h17.714v-804zM449.143 73.714h-17.714v804h17.714v-804zM538.857 73.714h-36v804h36v-804zM628.571 73.714h-36v804h36v-804zM700.571 73.714h-36v804h36v-804zM772.571 73.714h-36v804h36v-804zM826.286 73.714h-36v804h36v-804zM934.286 73.714h-53.714v804h53.714v-804zM970.286 73.714h-18.286v804h18.286v-804zM1024 73.143h-36v804.571h36v-804.571z" />
<glyph unicode="&#xf095;" glyph-name="phone" horiz-adv-x="805" d="M804.571 242.286q0-15.429-5.714-40.286t-12-39.143q-12-28.571-69.714-60.571-53.714-29.143-106.286-29.143-15.429 0-30 2t-32.857 7.143-27.143 8.286-31.714 11.714-28 10.286q-56 20-100 47.429-73.143 45.143-151.143 123.143t-123.143 151.143q-27.429 44-47.429 100-1.714 5.143-10.286 28t-11.714 31.714-8.286 27.143-7.143 32.857-2 30q0 52.571 29.143 106.286 32 57.714 60.571 69.714 14.286 6.286 39.143 12t40.286 5.714q8 0 12-1.714 10.286-3.429 30.286-43.429 6.286-10.857 17.143-30.857t20-36.286 17.714-30.571q1.714-2.286 10-14.286t12.286-20.286 4-16.286q0-11.429-16.286-28.571t-35.429-31.429-35.429-30.286-16.286-26.286q0-5.143 2.857-12.857t4.857-11.714 8-13.714 6.571-10.857q43.429-78.286 99.429-134.286t134.286-99.429q1.143-0.571 10.857-6.571t13.714-8 11.714-4.857 12.857-2.857q10.286 0 26.286 16.286t30.286 35.429 31.429 35.429 28.571 16.286q8 0 16.286-4t20.286-12.286 14.286-10q14.286-8.571 30.571-17.714t36.286-20 30.857-17.143q40-20 43.429-30.286 1.714-4 1.714-12z" />
<glyph unicode="&#xf099;" glyph-name="twitter" horiz-adv-x="951" d="M925.714 717.714q-38.286-56-92.571-95.429 0.571-8 0.571-24 0-74.286-21.714-148.286t-66-142-105.429-120.286-147.429-83.429-184.571-31.143q-154.857 0-283.429 82.857 20-2.286 44.571-2.286 128.571 0 229.143 78.857-60 1.143-107.429 36.857t-65.143 91.143q18.857-2.857 34.857-2.857 24.571 0 48.571 6.286-64 13.143-106 63.714t-42 117.429v2.286q38.857-21.714 83.429-23.429-37.714 25.143-60 65.714t-22.286 88q0 50.286 25.143 93.143 69.143-85.143 168.286-136.286t212.286-56.857q-4.571 21.714-4.571 42.286 0 76.571 54 130.571t130.571 54q80 0 134.857-58.286 62.286 12 117.143 44.571-21.143-65.714-81.143-101.714 53.143 5.714 106.286 28.571z" />
<glyph unicode="&#xf0d5;" glyph-name="google-plus" horiz-adv-x="1317" d="M821.143 429.143q0-118.857-49.714-211.714t-141.714-145.143-210.857-52.286q-85.143 0-162.857 33.143t-133.714 89.143-89.143 133.714-33.143 162.857 33.143 162.857 89.143 133.714 133.714 89.143 162.857 33.143q163.429 0 280.571-109.714l-113.714-109.143q-66.857 64.571-166.857 64.571-70.286 0-130-35.429t-94.571-96.286-34.857-132.857 34.857-132.857 94.571-96.286 130-35.429q47.429 0 87.143 13.143t65.429 32.857 44.857 44.857 28 47.429 12.286 42.286h-237.714v144h395.429q6.857-36 6.857-69.714zM1316.571 498.857v-120h-119.429v-119.429h-120v119.429h-119.429v120h119.429v119.429h120v-119.429h119.429z" />
<glyph unicode="&#xf12a;" glyph-name="exclamation" horiz-adv-x="366" d="M292.571 237.714v-128q0-14.857-10.857-25.714t-25.714-10.857h-146.286q-14.857 0-25.714 10.857t-10.857 25.714v128q0 14.857 10.857 25.714t25.714 10.857h146.286q14.857 0 25.714-10.857t10.857-25.714zM309.714 841.143l-16-438.857q-0.571-14.857-11.714-25.714t-26-10.857h-146.286q-14.857 0-26 10.857t-11.714 25.714l-16 438.857q-0.571 14.857 10 25.714t25.429 10.857h182.857q14.857 0 25.429-10.857t10-25.714z" />
<glyph unicode="&#xf13b;" glyph-name="html5" horiz-adv-x="805" d="M645.714 609.714l9.143 100h-505.143l26.857-305.143h349.714l-12.571-130.286-112.571-30.286-112 30.286-7.429 80h-100l12.571-158.857 206.857-57.143h2.286v0.571l205.143 56.571 28.571 310.857h-368l-8.571 103.429h385.143zM0 877.714h804.571l-73.143-821.714-330.286-92.571-328 92.571z" />
<glyph unicode="&#xf16a;" glyph-name="youtube-play" d="M731.429 438.857q0 21.143-17.143 30.857l-292.571 182.857q-17.714 11.429-37.143 1.143-18.857-10.286-18.857-32v-365.714q0-21.714 18.857-32 9.143-4.571 17.714-4.571 11.429 0 19.429 5.714l292.571 182.857q17.143 9.714 17.143 30.857zM1024 438.857q0-54.857-0.571-85.714t-4.857-78-12.857-84.286q-9.143-41.714-39.429-70.286t-70.857-33.143q-126.857-14.286-383.429-14.286t-383.429 14.286q-40.571 4.571-71.143 33.143t-39.714 70.286q-8 37.143-12.286 84.286t-4.857 78-0.571 85.714 0.571 85.714 4.857 78 12.857 84.286q9.143 41.714 39.429 70.286t70.857 33.143q126.857 14.286 383.429 14.286t383.429-14.286q40.571-4.571 71.143-33.143t39.714-70.286q8-37.143 12.286-84.286t4.857-78 0.571-85.714z" />
<glyph unicode="&#xf16d;" glyph-name="instagram" horiz-adv-x="878" d="M585.143 438.857q0 60.571-42.857 103.429t-103.429 42.857-103.429-42.857-42.857-103.429 42.857-103.429 103.429-42.857 103.429 42.857 42.857 103.429zM664 438.857q0-93.714-65.714-159.429t-159.429-65.714-159.429 65.714-65.714 159.429 65.714 159.429 159.429 65.714 159.429-65.714 65.714-159.429zM725.714 673.143q0-21.714-15.429-37.143t-37.143-15.429-37.143 15.429-15.429 37.143 15.429 37.143 37.143 15.429 37.143-15.429 15.429-37.143zM438.857 798.857q-4 0-43.714 0.286t-60.286 0-55.143-1.714-58.857-5.714-40.857-10.571q-28.571-11.429-50.286-33.143t-33.143-50.286q-6.286-16.571-10.571-40.857t-5.714-58.857-1.714-55.143 0-60.286 0.286-43.714-0.286-43.714 0-60.286 1.714-55.143 5.714-58.857 10.571-40.857q11.429-28.571 33.143-50.286t50.286-33.143q16.571-6.286 40.857-10.571t58.857-5.714 55.143-1.714 60.286 0 43.714 0.286 43.714-0.286 60.286 0 55.143 1.714 58.857 5.714 40.857 10.571q28.571 11.429 50.286 33.143t33.143 50.286q6.286 16.571 10.571 40.857t5.714 58.857 1.714 55.143 0 60.286-0.286 43.714 0.286 43.714 0 60.286-1.714 55.143-5.714 58.857-10.571 40.857q-11.429 28.571-33.143 50.286t-50.286 33.143q-16.571 6.286-40.857 10.571t-58.857 5.714-55.143 1.714-60.286 0-43.714-0.286zM877.714 438.857q0-130.857-2.857-181.143-5.714-118.857-70.857-184t-184-70.857q-50.286-2.857-181.143-2.857t-181.143 2.857q-118.857 5.714-184 70.857t-70.857 184q-2.857 50.286-2.857 181.143t2.857 181.143q5.714 118.857 70.857 184t184 70.857q50.286 2.857 181.143 2.857t181.143-2.857q118.857-5.714 184-70.857t70.857-184q2.857-50.286 2.857-181.143z" />
<glyph unicode="&#xf189;" glyph-name="vk" horiz-adv-x="1108" d="M1095.429 653.714q13.143-36.571-85.714-168-13.714-18.286-37.143-48.571-44.571-57.143-51.429-74.857-9.714-23.429 8-46.286 9.714-12 46.286-46.857h0.571l2.286-2.286q80.571-74.857 109.143-126.286 1.714-2.857 3.714-7.143t4-15.143-0.286-19.429-14.286-15.714-33.714-7.143l-146.286-2.286q-13.714-2.857-32 2.857t-29.714 12.571l-11.429 6.857q-17.143 12-40 36.571t-39.143 44.286-34.857 33.143-32.286 8.857q-1.714-0.571-4.571-2t-9.714-8.286-12.286-16.857-9.714-29.714-3.714-44.286q0-8.571-2-15.714t-4.286-10.571l-2.286-2.857q-10.286-10.857-30.286-12.571h-65.714q-40.571-2.286-83.429 9.429t-75.143 30.286-58.857 37.714-40.286 32.857l-14.286 13.714q-5.714 5.714-15.714 17.143t-40.857 52-60.571 86.286-70 120.571-74.571 155.429q-3.429 9.143-3.429 15.429t1.714 9.143l2.286 3.429q8.571 10.857 32.571 10.857l156.571 1.143q6.857-1.143 13.143-3.714t9.143-4.857l2.857-1.714q9.143-6.286 13.714-18.286 11.429-28.571 26.286-59.143t23.429-46.571l9.143-16.571q16.571-34.286 32-59.429t27.714-39.143 23.714-22 19.429-8 15.429 2.857q1.143 0.571 2.857 2.857t6.857 12.571 7.714 26.857 5.429 46.286 0 71.429q-1.143 22.857-5.143 41.714t-8 26.286l-3.429 6.857q-14.286 19.429-48.571 24.571-7.429 1.143 2.857 13.714 9.714 10.857 21.714 17.143 30.286 14.857 136.571 13.714 46.857-0.571 77.143-7.429 11.429-2.857 19.143-7.714t11.714-13.714 6-18.286 2-26-0.571-31.429-1.429-40.286-0.857-47.143q0-6.286-0.571-24t-0.286-27.429 2-23.143 6.571-22.286 12.857-14q4.571-1.143 9.714-2.286t14.857 6.286 21.714 19.714 29.714 38.286 38.857 61.429q34.286 59.429 61.143 128.571 2.286 5.714 5.714 10t6.286 6l2.286 1.714 2.857 1.429t7.429 1.714 11.429 0.286l164.571 1.143q22.286 2.857 36.571-1.429t17.714-9.429z" />
<glyph unicode="&#xf19e;" glyph-name="yahoo" horiz-adv-x="878" d="M490.857 404l7.429-404q-35.429 6.286-60 6.286-23.429 0-60-6.286l7.429 404q-22.857 39.429-96.286 168.857t-123.714 214-103.429 164q33.143-8.571 61.714-8.571 24.571 0 63.429 8.571 36-63.429 76.286-131.143t95.429-158 79.143-129.714q21.143 34.857 62.571 101.429t67.143 108.571 60 100.571 61.143 108.286q30.857-8 61.143-8 32 0 65.143 8v0q-16-22.286-34.286-50.571t-28.286-44.857-32.286-54.857-28-48q-83.429-141.714-201.714-348.571z" />
<glyph unicode="&#xf1a0;" glyph-name="google" horiz-adv-x="860" d="M438.857 501.714h414.286q6.857-38.286 6.857-73.143 0-124-52-221.429t-148.286-152.286-220.857-54.857q-89.714 0-170.857 34.571t-140 93.429-93.429 140-34.571 170.857 34.571 170.857 93.429 140 140 93.429 170.857 34.571q171.429 0 294.286-114.857l-119.429-114.857q-70.286 68-174.857 68-73.714 0-136.286-37.143t-99.143-100.857-36.571-139.143 36.571-139.143 99.143-100.857 136.286-37.143q49.714 0 91.429 13.714t68.571 34.286 46.857 46.857 29.429 49.714 12.857 44.571h-249.143v150.857z" />
<glyph unicode="&#xf1e0;" glyph-name="share-alt" horiz-adv-x="878" d="M694.857 365.714q76 0 129.429-53.429t53.429-129.429-53.429-129.429-129.429-53.429-129.429 53.429-53.429 129.429q0 6.857 1.143 19.429l-205.714 102.857q-52.571-49.143-124.571-49.143-76 0-129.429 53.429t-53.429 129.429 53.429 129.429 129.429 53.429q72 0 124.571-49.143l205.714 102.857q-1.143 12.571-1.143 19.429 0 76 53.429 129.429t129.429 53.429 129.429-53.429 53.429-129.429-53.429-129.429-129.429-53.429q-72 0-124.571 49.143l-205.714-102.857q1.143-12.571 1.143-19.429t-1.143-19.429l205.714-102.857q52.571 49.143 124.571 49.143z" />
<glyph unicode="&#xf232;" glyph-name="whatsapp" horiz-adv-x="878" d="M562.857 394.286q7.429 0 55.714-25.143t51.143-30.286q1.143-2.857 1.143-8.571 0-18.857-9.714-43.429-9.143-22.286-40.571-37.429t-58.286-15.143q-32.571 0-108.571 35.429-56 25.714-97.143 67.429t-84.571 105.714q-41.143 61.143-40.571 110.857v4.571q1.714 52 42.286 90.286 13.714 12.571 29.714 12.571 3.429 0 10.286-0.857t10.857-0.857q10.857 0 15.143-3.714t8.857-15.714q4.571-11.429 18.857-50.286t14.286-42.857q0-12-19.714-32.857t-19.714-26.571q0-4 2.857-8.571 19.429-41.714 58.286-78.286 32-30.286 86.286-57.714 6.857-4 12.571-4 8.571 0 30.857 27.714t29.714 27.714zM446.857 91.428q72.571 0 139.143 28.571t114.571 76.571 76.571 114.571 28.571 139.143-28.571 139.143-76.571 114.571-114.571 76.571-139.143 28.571-139.143-28.571-114.571-76.571-76.571-114.571-28.571-139.143q0-116 68.571-210.286l-45.143-133.143 138.286 44q90.286-59.429 197.143-59.429zM446.857 881.143q87.429 0 167.143-34.286t137.429-92 92-137.429 34.286-167.143-34.286-167.143-92-137.429-137.429-92-167.143-34.286q-111.429 0-208.571 53.714l-238.286-76.571 77.714 231.429q-61.714 101.714-61.714 222.286 0 87.429 34.286 167.143t92 137.429 137.429 92 167.143 34.286z" />
<glyph unicode="&#xf263;" glyph-name="odnoklassniki" horiz-adv-x="731" d="M365.714 432.571q-107.429 0-183.429 76t-76 182.857q0 107.429 76 183.429t183.429 76 183.429-76 76-183.429q0-106.857-76-182.857t-183.429-76zM365.714 819.428q-52.571 0-90-37.429t-37.429-90.571q0-52.571 37.429-90t90-37.429 90 37.429 37.429 90q0 53.143-37.429 90.571t-90 37.429zM664.571 401.143q7.429-15.429 8.571-28.286t-2.571-23.143-15.143-22-24.286-21.143-35.143-23.714q-65.714-41.714-180-53.714l41.714-41.143 152.571-152.571q17.143-17.714 17.143-42.286t-17.143-41.714l-6.857-7.429q-17.714-17.143-42.286-17.143t-42.286 17.143q-38.286 38.857-152.571 153.143l-152.571-153.143q-17.714-17.143-42.286-17.143t-41.714 17.143l-6.857 7.429q-17.714 17.143-17.714 41.714t17.714 42.286l193.714 193.714q-116 12-181.143 53.714-22.286 14.286-35.143 23.714t-24.286 21.143-15.143 22-2.571 23.143 8.571 28.286q5.714 11.429 16 20t24 12.571 32-1.143 37.143-20q2.857-2.286 8.571-6.286t24.571-14 39.429-17.429 52.571-13.714 64.571-6.286q52 0 99.429 14.571t68.571 28.857l21.714 14.286q18.857 14.857 37.143 20t32 1.143 24-12.571 16-20z" />
</font>
</defs>
</svg>
